<?xml version="1.0" encoding="utf-8"?>
<!-- Generator: Adobe Illustrator 19.0.0, SVG Export Plug-In . SVG Version: 6.00 Build 0)  -->
<svg version="1.1" xmlns="http://www.w3.org/2000/svg" xmlns:xlink="http://www.w3.org/1999/xlink" x="0px" y="0px"
	 viewBox="140 -140 300 300" style="enable-background:new 140 -140 300 300;" xml:space="preserve">
<style type="text/css">
	.st0{display:none;}
	.st1{display:inline;fill:#141414;}
	.st2{fill:#FFFFFF;}
	.st3{font-family:'MyriadPro-Regular';}
	.st4{font-size:91.5px;}
</style>
<g id="Layer_1" class="st0">
	<title>dribbble-logo</title>
	<path class="st1" d="M140,18.8c0-5.9,0-11.7,0-17.6c0.2-0.8,0.4-1.7,0.5-2.5c0.9-15.6,4.5-30.9,10.7-45.3
		c21.7-49.9,59.2-80.3,112.7-90.9c5.7-1.2,11.5-1.6,17.3-2.4h17.6c0.7,0.2,1.5,0.4,2.3,0.5c20.9,1.3,41.3,7.2,59.6,17.3
		c42.2,23.4,68,58.9,77,106.4c1.1,5.6,1.6,11.4,2.3,17v17.6c-0.2,0.8-0.4,1.7-0.5,2.5c-1.3,20.8-7.2,41.1-17.3,59.3
		c-23.4,42.2-58.9,68-106.4,77c-5.6,1.1-11.4,1.6-17.1,2.3h-17.6c-0.7-0.2-1.5-0.4-2.3-0.5c-18.2-1.1-36.1-5.7-52.5-13.7
		c-46-22.7-74.2-59.2-84-109.7C141.3,30.4,140.8,24.6,140,18.8z M308.4,34c-29.4,6.6-77.2,44.9-87.6,70
		c33.6,25.9,79.4,28.4,110.5,15C325.9,90.1,318.2,61.7,308.4,34z M292-6.8c-19.1,5.9-38.7,10.1-58.6,12.4c-19.9,2.3-40,3.2-60,2.7
		c-3.7,19.5,11,60.4,27.4,76.7c11.7-17.6,26.1-33.2,42.6-46.3c16.6-13.1,35.3-23.2,55.4-30L292-6.8z M238.3-94.8
		c-19.2,9.5-35.5,24.1-47,42.1c-6.8,10.4-11.7,21.9-14.6,34c21.1,3,87.8-5.4,103.2-12.9C268-53.9,254.6-75.2,238.3-94.8L238.3-94.8z
		 M265-104.3c15.3,20.1,28.9,41.5,40.5,64c22.1-9.6,41.7-22.4,57.4-41.1C333.8-103.6,301.5-111.4,265-104.3L265-104.3z M357,105.7
		c25.4-18.2,41.4-43,47.9-74c-16.7-5.5-57.3-7.7-69.3-3.9L357,105.7z M317.2-16.1c2.3,5.4,4.6,10.3,6.5,15.4c0.9,2.3,2,2.9,4.3,2.5
		c24.3-4.1,48.6-3,72.7,1.6c1.9,0.4,3.8,0.6,6,1c-1.1-24.3-9.9-47.5-24.9-66.6C363.8-41.8,342-27.1,317.2-16.1z"/>
</g>
<g id="Layer_2" class="st0">
	<circle class="st1" cx="290" cy="10" r="150"/>
</g>
<g id="Layer_4">
	<circle class="st2" cx="290" cy="10" r="150"/>
</g>
<g id="Layer_3">
	<text transform="matrix(1 0 0 1 254.7382 44.3304)" class="st3 st4">LI</text>
</g>
</svg>
