<?xml version="1.0" encoding="utf-8"?>
<!-- Generator: Adobe Illustrator 19.0.0, SVG Export Plug-In . SVG Version: 6.00 Build 0)  -->
<svg version="1.1" xmlns="http://www.w3.org/2000/svg" xmlns:xlink="http://www.w3.org/1999/xlink" x="0px" y="0px"
	 viewBox="140 -140 299.2 300" style="enable-background:new 140 -140 299.2 300;" xml:space="preserve">
<style type="text/css">
	.st0{display:none;}
	.st1{display:inline;fill:#FFFFFF;}
	.st2{display:inline;fill:#FFFFFF;stroke:#000000;stroke-miterlimit:10;}
	.st3{fill:#FFFFFF;stroke:#000000;stroke-miterlimit:10;}
	.st4{font-family:'MyriadPro-Regular';}
	.st5{font-size:38.3162px;}
</style>
<g id="Layer_1" class="st0">
	<title>quora-logo</title>
	<path class="st1" d="M297.8-140c6.4,1,13,1.6,19.3,3c25.9,5.4,48.4,17.4,68.7,34.2c0.2,0.2,0.3,0.4,0.2,0.2
		c-4.9,0.8-10.1,1.1-14.9,2.6c-21.3,6.3-31.1,31.4-19.6,50c2.3,3.8,5.4,7,9,9.4C374.8-31.2,380-17,382.9-1.2
		c2,11.2-0.9,21.4-5.4,31.2c-9.6,21-19.7,41.8-29.5,62.7c-0.2,0.4-0.5,0.7-0.8,1.1c-1-3.2-1.8-6.1-2.7-9
		C334,48.6,323.4,12.4,313-23.9c-1.6-5.4-2.5-11.1-1.1-16.8c1.6-6.2,5.5-9.1,11.7-9.1c3.9,0,7.8,0,11.7-0.1c0.2,0,0.3-0.2,0.7-0.3
		v-12.7h-89.6v12.7c7.6,0.8,11.7,6.1,14.1,12.2c5.6,14.4,10.5,29.1,15.5,43.8c2.4,7.2,4.5,14.5,6.6,21.8c0.3,1.1,0.3,2.2-0.1,3.3
		c-8.8,20.6-17.7,41.2-26.7,61.7c-0.1,0.3-0.3,0.5-0.6,1c-0.3-0.6-0.6-1.2-0.8-1.9c-9.9-41.7-19.9-83.4-29.8-125.1
		c-1.6-6.6,1.3-12.8,7.4-16.4c0.5-0.3,0.8-0.7,0.9-1.3c0.1-3.9,0-7.8,0-11.9h-76.1c0.8-1.4,1.2-2.2,1.7-3.1
		c21.7-36.9,53.7-59.8,95.1-69.8c7.7-1.9,15.8-2.5,23.7-3.7c1-0.2,1.9-0.4,2.9-0.5L297.8-140z"/>
	<path class="st1" d="M280.2,160c-5.6-0.8-11.2-1.5-16.7-2.3c-3-0.5-5.9-1.2-9.1-1.8l38.3-93.5l33.5,93.4
		c-6.2,1.1-12.2,2.1-18.2,3.1c-3,0.5-6,0.8-8.9,1.2L280.2,160z"/>
	<path class="st1" d="M231.3,146.4c-10.3-4.2-20-9.6-28.9-16.1c-42.7-30.3-66.3-81-61.8-133.2c1.2-15.3,4.2-30.1,10.1-44.3
		c0.8-1.9,1.8-2.4,3.8-2.6c6.9-0.7,13.8,2.1,18.2,7.5c1.1,1.2,2,2.6,2.5,4.2c18.6,60.8,37.2,121.6,55.6,182.4
		C230.9,144.7,231,145.3,231.3,146.4z"/>
	<path class="st1" d="M351.2,146.8c8.6-20.7,17.1-40.7,25.4-60.8c13.8-33.2,27.1-66.6,38.1-100.9c5-15.5,7-31.4,4.1-47.7
		c9.7,13.6,21.7,45.8,20.4,78.7c-1.1,28.3-9.3,54.3-25,77.7S377.5,134.8,351.2,146.8z"/>
	<circle class="st2" cx="290" cy="10" r="150"/>
</g>
<g id="Layer_2">
	<circle class="st3" cx="290" cy="10" r="150"/>
</g>
<g id="Layer_3">
	<text transform="matrix(1 0 0 1 249.0001 20.2683)" class="st4 st5">Gmail</text>
</g>
</svg>
